<mxfile host="app.diagrams.net" modified="2022-06-17T02:22:22.468Z" agent="5.0 (Windows NT 10.0; Win64; x64) AppleWebKit/537.36 (KHTML, like Gecko) Chrome/102.0.0.0 Safari/537.36" etag="KPcLz4Xbsph-uNyDWMwI" version="20.0.1" type="github">
  <diagram id="sJrfhsvqXwlcYLidq1BC" name="Page-1">
    <mxGraphModel dx="782" dy="460" grid="1" gridSize="10" guides="1" tooltips="1" connect="1" arrows="1" fold="1" page="1" pageScale="1" pageWidth="827" pageHeight="1169" math="0" shadow="0">
      <root>
        <mxCell id="0" />
        <mxCell id="1" parent="0" />
        <mxCell id="cWWMfpXaHbgyBSgXpzkg-1" value="" style="rounded=0;whiteSpace=wrap;html=1;" vertex="1" parent="1">
          <mxGeometry x="10" y="20" width="390" height="440" as="geometry" />
        </mxCell>
        <mxCell id="cWWMfpXaHbgyBSgXpzkg-2" value="HEADER" style="rounded=0;whiteSpace=wrap;html=1;" vertex="1" parent="1">
          <mxGeometry x="20" y="110" width="370" height="60" as="geometry" />
        </mxCell>
        <mxCell id="cWWMfpXaHbgyBSgXpzkg-3" value="Text" style="text;html=1;strokeColor=none;fillColor=none;align=center;verticalAlign=middle;whiteSpace=wrap;rounded=0;" vertex="1" parent="1">
          <mxGeometry x="50" y="130" width="320" height="190" as="geometry" />
        </mxCell>
        <mxCell id="cWWMfpXaHbgyBSgXpzkg-4" value="GOOGLE SIGN-IN AUTHORIZATION&amp;nbsp;" style="rounded=0;whiteSpace=wrap;html=1;" vertex="1" parent="1">
          <mxGeometry x="20" y="190" width="370" height="260" as="geometry" />
        </mxCell>
        <mxCell id="cWWMfpXaHbgyBSgXpzkg-5" value="Screen 1 : SIGN-IN SCREEN (AUTHORIZATION THROUGH FIREBASE)" style="text;html=1;strokeColor=none;fillColor=none;align=center;verticalAlign=middle;whiteSpace=wrap;rounded=0;" vertex="1" parent="1">
          <mxGeometry x="21" y="32" width="370" height="40" as="geometry" />
        </mxCell>
        <mxCell id="cWWMfpXaHbgyBSgXpzkg-6" value="" style="rounded=0;whiteSpace=wrap;html=1;" vertex="1" parent="1">
          <mxGeometry x="414" y="20" width="396" height="440" as="geometry" />
        </mxCell>
        <mxCell id="cWWMfpXaHbgyBSgXpzkg-7" value="Screen-2 : ChatRoom (between Firebase and Sign-in user)" style="text;html=1;strokeColor=none;fillColor=none;align=center;verticalAlign=middle;whiteSpace=wrap;rounded=0;" vertex="1" parent="1">
          <mxGeometry x="430" y="31" width="370" height="40" as="geometry" />
        </mxCell>
        <mxCell id="cWWMfpXaHbgyBSgXpzkg-8" value="HEADER" style="rounded=0;whiteSpace=wrap;html=1;" vertex="1" parent="1">
          <mxGeometry x="430" y="80" width="370" height="60" as="geometry" />
        </mxCell>
        <mxCell id="cWWMfpXaHbgyBSgXpzkg-9" value="Text" style="text;html=1;strokeColor=none;fillColor=none;align=center;verticalAlign=middle;whiteSpace=wrap;rounded=0;" vertex="1" parent="1">
          <mxGeometry x="410" y="230" width="60" height="30" as="geometry" />
        </mxCell>
        <mxCell id="cWWMfpXaHbgyBSgXpzkg-10" value="" style="rounded=0;whiteSpace=wrap;html=1;" vertex="1" parent="1">
          <mxGeometry x="670" y="90" width="120" height="40" as="geometry" />
        </mxCell>
        <mxCell id="cWWMfpXaHbgyBSgXpzkg-11" value="SIGN-OUT button" style="text;html=1;strokeColor=none;fillColor=none;align=center;verticalAlign=middle;whiteSpace=wrap;rounded=0;" vertex="1" parent="1">
          <mxGeometry x="670" y="95" width="120" height="30" as="geometry" />
        </mxCell>
        <mxCell id="cWWMfpXaHbgyBSgXpzkg-12" value="ChatRoom (containing message history)" style="rounded=0;whiteSpace=wrap;html=1;" vertex="1" parent="1">
          <mxGeometry x="430" y="150" width="370" height="220" as="geometry" />
        </mxCell>
        <mxCell id="cWWMfpXaHbgyBSgXpzkg-13" value="" style="rounded=0;whiteSpace=wrap;html=1;" vertex="1" parent="1">
          <mxGeometry x="430" y="380" width="370" height="60" as="geometry" />
        </mxCell>
        <mxCell id="cWWMfpXaHbgyBSgXpzkg-14" value="" style="rounded=0;whiteSpace=wrap;html=1;" vertex="1" parent="1">
          <mxGeometry x="672" y="386" width="120" height="50" as="geometry" />
        </mxCell>
        <mxCell id="cWWMfpXaHbgyBSgXpzkg-15" value="SEND Button" style="text;html=1;strokeColor=none;fillColor=none;align=center;verticalAlign=middle;whiteSpace=wrap;rounded=0;" vertex="1" parent="1">
          <mxGeometry x="672" y="386" width="118" height="54" as="geometry" />
        </mxCell>
        <mxCell id="cWWMfpXaHbgyBSgXpzkg-16" value="Type Your Message here in Text area" style="text;html=1;strokeColor=none;fillColor=none;align=center;verticalAlign=middle;whiteSpace=wrap;rounded=0;" vertex="1" parent="1">
          <mxGeometry x="440" y="395" width="220" height="30" as="geometry" />
        </mxCell>
        <mxCell id="cWWMfpXaHbgyBSgXpzkg-17" value="" style="triangle;whiteSpace=wrap;html=1;" vertex="1" parent="1">
          <mxGeometry x="773" y="400" width="10" height="20" as="geometry" />
        </mxCell>
      </root>
    </mxGraphModel>
  </diagram>
</mxfile>
